<svg xmlns="http://www.w3.org/2000/svg" xmlns:xlink="http://www.w3.org/1999/xlink" width="1920" zoomAndPan="magnify" viewBox="0 0 1440 809.999993" height="1080" preserveAspectRatio="xMidYMid meet" version="1.0"><defs><clipPath id="9e6a9d3f63"><path d="M 0 527.597656 L 248.855469 527.597656 L 248.855469 810 L 0 810 Z M 0 527.597656 " clip-rule="nonzero"/></clipPath><clipPath id="238463db6c"><path d="M 1009 0 L 1440 0 L 1440 222.660156 L 1009 222.660156 Z M 1009 0 " clip-rule="nonzero"/></clipPath><clipPath id="6421db4c4b"><path d="M 1094 532 L 1440 532 L 1440 810 L 1094 810 Z M 1094 532 " clip-rule="nonzero"/></clipPath><clipPath id="0765ba8655"><path d="M 1603.632812 629.175781 L 1387.390625 1014.378906 L 1057.121094 828.976562 L 1273.363281 443.773438 Z M 1603.632812 629.175781 " clip-rule="nonzero"/></clipPath><clipPath id="9f3ea8214f"><path d="M 1603.632812 629.175781 L 1387.390625 1014.378906 L 1057.121094 828.976562 L 1273.363281 443.773438 Z M 1603.632812 629.175781 " clip-rule="nonzero"/></clipPath><clipPath id="118214a52f"><path d="M 0 0 L 401.578125 0 L 401.578125 280.792969 L 0 280.792969 Z M 0 0 " clip-rule="nonzero"/></clipPath><clipPath id="ab7073a1c1"><path d="M 0 527.597656 L 248.734375 527.597656 L 248.734375 810 L 0 810 Z M 0 527.597656 " clip-rule="nonzero"/></clipPath><clipPath id="cfeb4e344c"><path d="M 467.054688 0 L 941 0 L 941 197 L 467.054688 197 Z M 467.054688 0 " clip-rule="nonzero"/></clipPath></defs><rect x="-144" width="1728" fill="#ffffff" y="-80.999999" height="971.999992" fill-opacity="1"/><rect x="-144" width="1728" fill="#ffffff" y="-80.999999" height="971.999992" fill-opacity="1"/><g clip-path="url(#9e6a9d3f63)"><path fill="#5c1a99" d="M 163.238281 851.566406 C 162.679688 851.5625 162.121094 851.5625 161.566406 851.5625 C 159.136719 851.5625 156.707031 851.566406 154.273438 851.570312 C 151.984375 851.589844 149.75 851.09375 147.539062 850.621094 C 142.140625 849.457031 136.808594 848.027344 131.597656 846.175781 C 128.09375 844.933594 124.664062 843.511719 121.257812 842.023438 C 113.550781 838.664062 106.042969 834.855469 98.222656 831.75 C 93.207031 829.761719 88.054688 828.257812 82.699219 827.476562 C 80.128906 827.101562 77.5625 826.78125 74.96875 826.613281 C 73.4375 826.515625 71.910156 826.332031 70.382812 826.429688 C 67.519531 826.609375 64.65625 826.804688 61.800781 827.136719 C 58.484375 827.527344 55.199219 828.050781 51.914062 828.621094 C 49.214844 829.089844 46.554688 829.71875 43.910156 830.402344 C 39.054688 831.648438 34.253906 833.109375 29.539062 834.8125 C 23.984375 836.816406 18.363281 838.5625 12.609375 839.875 C 9.535156 840.574219 6.425781 840.988281 3.277344 841.265625 C -0.675781 841.613281 -4.621094 841.546875 -8.566406 841.46875 C -13.8125 841.367188 -18.855469 840.21875 -23.648438 838.015625 C -25.632812 837.101562 -27.558594 836.082031 -29.46875 835.023438 C -31.3125 834 -32.894531 832.636719 -34.492188 831.296875 C -36.058594 829.984375 -37.5625 828.59375 -39.007812 827.144531 C -42.148438 823.996094 -44.710938 820.410156 -46.96875 816.613281 C -50.550781 810.59375 -53.226562 804.164062 -55.269531 797.476562 C -56.273438 794.195312 -56.910156 790.824219 -57.230469 787.390625 C -57.339844 786.234375 -57.441406 785.082031 -57.476562 783.921875 C -57.324219 782.160156 -57.59375 780.417969 -57.734375 778.667969 C -57.894531 776.671875 -57.261719 774.714844 -57.476562 772.71875 C -57.347656 769.929688 -56.847656 767.191406 -56.332031 764.460938 C -55.703125 761.128906 -55.03125 757.8125 -54 754.574219 C -53.023438 751.511719 -51.867188 748.527344 -50.570312 745.59375 C -49.332031 742.785156 -48.070312 739.984375 -46.675781 737.25 C -43.84375 731.699219 -40.847656 726.234375 -37.707031 720.847656 C -34.851562 715.945312 -32.132812 710.964844 -29.28125 706.0625 C -26.773438 701.753906 -24.445312 697.359375 -22.3125 692.859375 C -19.582031 687.09375 -17.175781 681.207031 -15.726562 674.96875 C -14.976562 671.757812 -14.445312 668.523438 -14.097656 665.238281 C -13.832031 662.769531 -13.800781 660.304688 -13.945312 657.855469 C -14.097656 655.222656 -14.230469 652.582031 -14.636719 649.960938 C -15.054688 647.308594 -15.238281 644.617188 -15.570312 641.949219 C -15.863281 639.605469 -16.207031 637.265625 -16.542969 634.925781 C -16.949219 632.082031 -17.378906 629.238281 -17.789062 626.398438 C -18.140625 623.96875 -18.503906 621.539062 -18.824219 619.101562 C -19.0625 617.265625 -19.335938 615.421875 -19.425781 613.574219 C -19.621094 609.585938 -20.085938 605.601562 -19.992188 601.605469 C -19.789062 593.09375 -18.464844 584.792969 -15.15625 576.878906 C -13.410156 572.707031 -11.238281 568.757812 -8.851562 564.917969 C -6.660156 561.398438 -4.167969 558.117188 -1.320312 555.089844 C 2.328125 551.21875 6.402344 547.878906 10.6875 544.75 C 16.71875 540.34375 23.433594 537.28125 30.347656 534.632812 C 35.679688 532.589844 41.089844 530.734375 46.675781 529.46875 C 49.339844 528.863281 52.027344 528.386719 54.757812 528.121094 C 58.136719 527.796875 61.511719 527.605469 64.90625 527.609375 C 67.695312 527.613281 70.464844 527.894531 73.238281 528.101562 C 75.648438 528.28125 78.023438 528.644531 80.410156 528.996094 C 83.21875 529.414062 85.941406 530.195312 88.617188 531.121094 C 92.40625 532.429688 96.027344 534.132812 99.554688 536.023438 C 102.667969 537.691406 105.714844 539.480469 108.828125 541.15625 C 111.734375 542.726562 114.742188 544.09375 117.714844 545.53125 C 122.589844 547.878906 127.695312 549.566406 132.863281 551.121094 C 136.875 552.324219 140.996094 552.996094 145.089844 553.785156 C 146.933594 554.136719 148.851562 554.429688 150.761719 553.949219 C 151.113281 553.859375 151.503906 553.90625 151.875 553.90625 C 154.296875 553.898438 156.714844 553.902344 159.136719 553.886719 C 162.390625 553.863281 165.625 554.148438 168.867188 554.375 C 171.367188 554.546875 173.863281 554.769531 176.347656 555.058594 C 179.800781 555.460938 183.199219 556.214844 186.554688 557.148438 C 190.722656 558.3125 194.824219 559.703125 198.703125 561.617188 C 203.125 563.796875 207.453125 566.175781 211.34375 569.234375 C 215.898438 572.820312 219.148438 577.386719 221.417969 582.71875 C 222.792969 585.945312 223.882812 589.246094 224.324219 592.714844 C 224.746094 595.984375 224.800781 599.269531 224.503906 602.582031 C 223.992188 608.21875 222.105469 613.441406 220.125 618.65625 C 217.941406 624.398438 216.203125 630.277344 215.019531 636.300781 C 214.59375 638.472656 214.300781 640.699219 214.335938 642.941406 C 214.375 645.59375 214.289062 648.253906 214.378906 650.90625 C 214.457031 653.175781 214.789062 655.425781 215.078125 657.683594 C 215.464844 660.71875 215.992188 663.730469 216.582031 666.734375 C 217.339844 670.609375 218.175781 674.472656 219.53125 678.183594 C 221.265625 682.941406 223.128906 687.652344 224.984375 692.367188 C 225.734375 694.269531 226.566406 696.140625 227.441406 697.988281 C 229.078125 701.433594 230.765625 704.859375 232.453125 708.28125 C 234.410156 712.246094 236.429688 716.175781 238.34375 720.160156 C 240.777344 725.230469 243.253906 730.289062 244.976562 735.664062 C 246.449219 740.269531 247.710938 744.929688 248.371094 749.722656 C 248.796875 752.796875 249.097656 755.902344 249.019531 759.023438 C 249.019531 761.269531 249.019531 763.511719 249.019531 765.753906 C 248.851562 774.304688 246.351562 782.175781 242.160156 789.574219 C 239.644531 794.011719 236.480469 797.933594 233.074219 801.695312 C 229.921875 805.179688 226.777344 808.664062 223.34375 811.867188 C 220.722656 814.3125 218.144531 816.796875 215.6875 819.394531 C 212.492188 822.769531 209.371094 826.210938 206.078125 829.496094 C 202.949219 832.617188 199.601562 835.472656 196.085938 838.152344 C 192.535156 840.859375 188.855469 843.375 184.890625 845.433594 C 179.5 848.230469 173.835938 850.226562 167.785156 851.039062 C 166.273438 851.246094 164.761719 851.453125 163.238281 851.566406 Z M 163.238281 851.566406 " fill-opacity="1" fill-rule="nonzero"/></g><g clip-path="url(#238463db6c)"><path fill="#5c1a99" d="M 1066.078125 -45.273438 C 1105.136719 -60.59375 1149.734375 -56.5625 1189.179688 -42.273438 C 1204.898438 -36.578125 1220.019531 -29.339844 1235.714844 -23.585938 C 1251.410156 -17.835938 1267.9375 -13.554688 1284.644531 -14.136719 C 1301.613281 -14.726562 1318.003906 -20.289062 1333.746094 -26.652344 C 1349.488281 -33.015625 1364.960938 -40.265625 1381.402344 -44.515625 C 1400.769531 -49.519531 1421.464844 -50.1875 1440.71875 -44.757812 C 1459.972656 -39.332031 1477.671875 -27.574219 1488.785156 -10.941406 C 1499.257812 4.730469 1503.644531 23.984375 1514.960938 39.058594 C 1527.335938 55.539062 1546.605469 65.25 1561.578125 79.417969 C 1569.066406 86.5 1575.582031 94.917969 1578.8125 104.703125 C 1580.425781 109.597656 1581.191406 114.792969 1580.816406 119.933594 C 1580.4375 125.074219 1578.902344 130.152344 1576.15625 134.511719 C 1573.15625 139.285156 1568.777344 143.105469 1563.867188 145.871094 C 1558.957031 148.640625 1553.519531 150.386719 1547.996094 151.496094 C 1536.941406 153.714844 1525.554688 153.429688 1514.351562 154.695312 C 1482.144531 158.328125 1452.941406 174.457031 1422.824219 186.4375 C 1386.347656 200.949219 1346.019531 209.605469 1307.757812 200.816406 C 1294.027344 197.660156 1280.90625 192.34375 1267.570312 187.796875 C 1254.238281 183.25 1240.425781 179.429688 1226.335938 179.453125 C 1203.210938 179.488281 1181.476562 189.777344 1160.769531 200.078125 C 1149.359375 205.753906 1137.953125 211.515625 1125.957031 215.804688 C 1113.957031 220.09375 1101.277344 222.894531 1088.542969 222.425781 C 1075.808594 221.957031 1062.988281 218.046875 1053.070312 210.050781 C 1048.109375 206.054688 1043.921875 201.070312 1041.019531 195.398438 C 1038.113281 189.726562 1036.511719 183.371094 1036.582031 177 C 1036.652344 170.726562 1038.320312 164.5625 1040.660156 158.742188 C 1043 152.921875 1046.003906 147.398438 1048.882812 141.824219 C 1051.761719 136.25 1054.53125 130.585938 1056.355469 124.582031 C 1058.179688 118.582031 1059.03125 112.195312 1058.015625 106.003906 C 1057.085938 100.363281 1054.628906 95.050781 1051.425781 90.316406 C 1048.222656 85.582031 1044.285156 81.390625 1040.171875 77.417969 C 1031.949219 69.476562 1022.828125 62.164062 1016.871094 52.40625 C 1011.449219 43.53125 1008.976562 32.96875 1009.390625 22.578125 C 1009.804688 12.183594 1013.046875 1.980469 1018.277344 -7.011719 C 1028.730469 -24.992188 1046.714844 -37.679688 1066.078125 -45.273438 Z M 1066.078125 -45.273438 " fill-opacity="1" fill-rule="nonzero"/></g><path fill="#f8e29c" d="M 1297.589844 203.273438 C 1313.214844 173.589844 1349.320312 171.851562 1379.613281 174.628906 C 1413.464844 177.753906 1430.914062 168.726562 1459.46875 152.148438 C 1482.644531 138.695312 1504.085938 139.128906 1528.648438 151.714844 C 1558.335938 166.992188 1552.257812 194.332031 1576.300781 211.691406 C 1598.609375 227.835938 1632.289062 220.632812 1655.984375 235.5625 C 1679.765625 250.578125 1686.191406 276.53125 1684.886719 303.351562 C 1683.066406 339.894531 1664.230469 374.09375 1670.914062 411.15625 C 1676.292969 441.015625 1707.457031 471.65625 1691.917969 503.164062 C 1662.839844 562.101562 1572.046875 512.714844 1525.351562 521.304688 C 1474.832031 530.679688 1398.277344 586.664062 1349.667969 536.929688 C 1328.144531 514.96875 1339.773438 479.988281 1339.339844 453.167969 C 1338.730469 415.84375 1325.972656 404.5625 1299.933594 380.257812 C 1274.847656 356.910156 1254.972656 345.277344 1264.867188 309.949219 C 1270.769531 288.769531 1299.585938 284.082031 1304.96875 270.109375 C 1311.476562 252.664062 1288.648438 220.113281 1297.589844 203.273438 Z M 1297.589844 203.273438 " fill-opacity="1" fill-rule="nonzero"/><g clip-path="url(#6421db4c4b)"><g clip-path="url(#0765ba8655)"><g clip-path="url(#9f3ea8214f)"><path fill="#f8e29c" d="M 1535.113281 735.53125 C 1542.996094 681.160156 1506.046875 628.3125 1471.03125 582.109375 C 1452.777344 558.027344 1429.027344 531.15625 1399.078125 532.121094 C 1376.058594 532.867188 1358.320312 550.398438 1336.027344 554.953125 C 1305.714844 561.140625 1272.628906 542.464844 1242.386719 548.878906 C 1212.25 555.277344 1194.734375 584.507812 1186.980469 613.160156 C 1179.226562 641.8125 1177.703125 672.757812 1163.96875 698.933594 C 1149.621094 726.289062 1123.304688 745.707031 1106.769531 771.800781 C 1090.230469 797.894531 1087.234375 838.074219 1114.265625 857.5 C 1134.90625 872.328125 1162.953125 868.15625 1187.101562 875.886719 C 1215.015625 884.816406 1235.101562 908.550781 1256.53125 928.488281 C 1277.960938 948.425781 1307.097656 966.570312 1334.496094 959.429688 C 1373.425781 949.285156 1378.527344 899.566406 1401.46875 868.308594 C 1421.949219 840.398438 1457.511719 827.363281 1486.195312 807.230469 C 1514.882812 787.09375 1532.972656 750.261719 1535.105469 735.527344 Z M 1535.113281 735.53125 " fill-opacity="1" fill-rule="nonzero"/></g></g></g><g clip-path="url(#118214a52f)"><path fill="#5c1a99" d="M -74.671875 30.679688 C -70.632812 18.566406 -59.386719 0.398438 -29.101562 6.742188 C -27.082031 7.03125 -25.066406 7.609375 -23.046875 7.898438 C -3.433594 10.78125 15.890625 7.609375 31.175781 -1.042969 C 46.460938 -9.695312 58 -23.539062 62.324219 -43.152344 L 64.632812 -43.152344 C 60.015625 -22.675781 48.191406 -7.964844 32.328125 0.6875 C 16.464844 9.628906 -3.433594 12.800781 -23.335938 9.914062 C -25.351562 9.628906 -27.371094 9.339844 -29.679688 8.761719 C -68.328125 0.6875 -74.09375 35.007812 -74.671875 39.910156 Z M -74.671875 276.410156 C -51.597656 238.628906 -10.355469 194.5 52.230469 204.59375 C 104.433594 213.246094 138.753906 210.652344 161.539062 199.691406 C 183.746094 189.019531 194.707031 169.984375 200.1875 145.46875 C 209.992188 103.363281 213.742188 101.34375 266.234375 75.386719 C 276.039062 70.484375 287.863281 64.714844 301.421875 57.792969 C 344.394531 35.585938 366.890625 23.472656 380.445312 6.453125 C 389.964844 -5.945312 395.15625 -20.65625 399.769531 -43.152344 L 401.789062 -43.152344 C 397.175781 -20.078125 391.984375 -4.792969 382.175781 7.609375 C 368.332031 24.914062 345.546875 37.601562 302.574219 59.523438 C 288.441406 66.734375 276.90625 72.5 267.097656 77.40625 C 215.761719 102.785156 211.722656 104.804688 202.492188 146.046875 C 196.726562 171.140625 185.476562 190.75 162.40625 201.710938 C 139.332031 212.671875 104.722656 215.265625 51.941406 206.902344 C -11.222656 196.519531 -52.175781 242.667969 -74.671875 280.738281 Z M -74.671875 261.125 C -52.753906 224.785156 -13.238281 182.386719 47.039062 192.195312 C 96.644531 200.269531 128.949219 197.960938 150.578125 187.867188 C 171.921875 177.773438 182.304688 160.179688 187.785156 137.105469 C 197.300781 97.304688 201.628906 95.285156 250.660156 71.058594 C 260.175781 66.445312 271.425781 60.675781 284.691406 54.042969 C 325.359375 33.277344 346.988281 21.164062 359.96875 4.722656 C 369.199219 -7.101562 374.101562 -21.523438 378.714844 -43.152344 L 380.734375 -43.152344 C 376.121094 -20.945312 371.214844 -6.234375 361.410156 6.167969 C 348.433594 22.894531 326.511719 35.007812 285.558594 56.0625 C 272.289062 62.695312 261.042969 68.464844 251.523438 73.078125 C 203.359375 96.726562 199.320312 98.746094 189.804688 137.394531 C 184.324219 161.042969 173.363281 179.503906 151.445312 189.886719 C 129.523438 199.980469 96.644531 202.578125 46.75 194.5 C -14.105469 184.40625 -53.328125 228.820312 -74.671875 265.164062 Z M -74.671875 245.550781 C -53.90625 210.941406 -16.125 170.273438 42.136719 179.792969 C 88.570312 187.578125 119.140625 185.273438 139.621094 176.042969 C 159.808594 166.523438 169.902344 150.085938 175.382812 128.453125 C 184.902344 91.535156 189.515625 89.230469 235.085938 66.734375 C 244.3125 62.117188 254.984375 56.925781 267.675781 50.292969 C 306.324219 30.679688 326.800781 18.855469 339.203125 2.992188 C 348.433594 -8.253906 353.335938 -22.097656 357.660156 -43.152344 L 359.679688 -43.152344 C 355.355469 -21.523438 350.449219 -7.390625 340.933594 4.4375 C 328.242188 20.585938 307.476562 32.410156 268.539062 52.3125 C 255.851562 58.945312 245.179688 64.136719 236.238281 68.464844 C 191.246094 90.960938 186.632812 92.980469 177.402344 129.03125 C 171.921875 151.238281 161.25 168.253906 140.484375 177.773438 C 119.71875 187.578125 88.570312 189.597656 41.558594 182.097656 C -17.277344 172.292969 -54.484375 214.976562 -74.671875 249.875 Z M -74.671875 229.976562 C -54.773438 197.097656 -19.296875 158.160156 36.945312 167.679688 C 80.496094 174.601562 109.335938 172.582031 128.660156 163.929688 C 147.695312 155.277344 157.5 139.992188 162.980469 119.800781 C 172.5 85.769531 177.113281 83.171875 219.800781 62.40625 C 228.453125 58.082031 238.546875 52.890625 250.660156 46.832031 C 287 28.085938 306.898438 16.835938 318.726562 1.550781 C 327.664062 -9.695312 332.28125 -22.964844 336.320312 -43.152344 L 338.625 -43.152344 C 334.300781 -22.386719 329.683594 -8.832031 320.457031 2.707031 C 308.34375 18.28125 288.441406 29.816406 251.8125 48.5625 C 239.410156 54.910156 229.316406 59.8125 220.664062 64.136719 C 178.84375 84.902344 174.230469 87.210938 165 120.378906 C 159.519531 141.144531 149.425781 157.007812 129.523438 165.949219 C 109.914062 174.890625 80.496094 176.90625 36.65625 169.695312 C -20.160156 160.179688 -55.636719 201.132812 -74.671875 234.300781 Z M -74.671875 214.691406 C -55.925781 183.253906 -22.179688 146.046875 31.753906 155.277344 C 72.417969 161.910156 99.53125 160.179688 117.699219 152.105469 C 135.871094 144.027344 145.097656 129.894531 150.578125 111.4375 C 159.808594 79.710938 165 77.40625 204.222656 57.792969 C 212.589844 53.753906 222.105469 49.140625 233.929688 43.082031 C 267.964844 25.488281 286.710938 14.53125 298.246094 -0.179688 C 306.613281 -10.851562 311.226562 -23.828125 315.265625 -43.152344 L 317.570312 -43.152344 C 313.535156 -23.253906 308.628906 -9.984375 299.976562 1.261719 C 288.152344 16.261719 269.40625 27.21875 234.796875 45.101562 C 223.261719 50.871094 213.453125 55.773438 205.089844 59.8125 C 166.441406 78.847656 161.539062 81.441406 152.597656 112.015625 C 147.117188 131.050781 137.3125 145.757812 118.566406 154.121094 C 99.820312 162.199219 72.417969 163.929688 31.464844 157.296875 C -23.046875 148.066406 -56.789062 187.289062 -74.671875 218.726562 Z M -74.671875 199.117188 C -57.078125 169.410156 -25.066406 133.933594 26.847656 142.875 C 64.34375 148.929688 89.722656 147.488281 106.742188 139.992188 C 123.757812 132.78125 132.699219 119.800781 138.175781 102.785156 C 147.40625 73.945312 152.597656 71.347656 188.648438 53.464844 C 196.4375 49.714844 205.667969 45.101562 216.914062 39.332031 C 248.929688 22.894531 266.808594 12.511719 277.769531 -1.910156 C 285.847656 -12.292969 290.460938 -24.695312 294.210938 -43.152344 L 296.515625 -43.152344 C 292.480469 -24.117188 287.863281 -11.425781 279.5 -0.46875 C 268.253906 13.953125 250.371094 24.625 217.78125 41.351562 C 206.820312 47.121094 197.589844 51.734375 189.804688 55.484375 C 154.328125 72.789062 149.136719 75.386719 140.195312 103.363281 C 134.714844 120.957031 125.199219 134.511719 107.605469 142.007812 C 90.011719 149.507812 64.34375 151.238281 26.273438 144.894531 C -26.21875 135.953125 -57.945312 173.445312 -74.671875 203.441406 Z M -74.671875 183.828125 C -58.234375 155.566406 -27.949219 121.820312 21.65625 130.472656 C 56.269531 136.242188 79.628906 134.800781 95.78125 128.164062 C 111.644531 121.53125 120.296875 109.707031 125.777344 94.132812 C 134.714844 68.175781 140.195312 65.292969 173.363281 49.140625 C 180.574219 45.679688 189.226562 41.351562 199.898438 35.871094 C 229.894531 20.296875 246.621094 10.203125 257.292969 -3.351562 C 265.078125 -13.445312 269.40625 -25.558594 273.15625 -43.152344 L 275.464844 -43.152344 C 271.425781 -24.984375 267.097656 -12.582031 259.023438 -2.199219 C 248.0625 11.933594 231.046875 22.027344 201.050781 37.601562 C 190.378906 43.082031 181.726562 47.410156 174.230469 51.160156 C 141.925781 67.023438 136.445312 69.617188 127.792969 94.996094 C 122.316406 110.859375 113.085938 123.261719 96.644531 130.183594 C 80.207031 136.816406 56.269531 138.261719 21.371094 132.492188 C -29.101562 123.839844 -59.097656 159.601562 -74.671875 188.15625 Z M -74.671875 168.253906 C -59.386719 141.722656 -31.121094 109.707031 16.464844 118.070312 C 48.191406 123.261719 69.824219 122.109375 84.820312 116.339844 C 99.53125 110.285156 107.894531 99.613281 113.375 85.769531 C 122.316406 62.117188 128.082031 59.523438 157.789062 44.8125 C 164.710938 41.351562 172.789062 37.316406 182.882812 32.125 C 210.859375 17.703125 226.722656 7.898438 236.816406 -5.082031 C 244.3125 -14.886719 248.640625 -26.425781 252.101562 -43.152344 L 254.121094 -43.152344 C 250.660156 -25.847656 246.332031 -13.734375 238.546875 -3.640625 C 228.164062 9.628906 212.011719 19.433594 184.035156 34.140625 C 173.941406 39.332031 165.578125 43.371094 158.65625 46.832031 C 129.523438 60.964844 124.046875 63.847656 115.394531 86.34375 C 109.914062 101.054688 100.972656 112.015625 85.6875 118.359375 C 70.398438 124.417969 48.480469 125.570312 16.179688 120.089844 C -31.988281 111.726562 -60.25 146.046875 -74.671875 172.582031 Z M -74.671875 152.679688 C -60.539062 127.878906 -34.007812 97.59375 11.5625 105.667969 C 40.40625 110.570312 60.015625 109.417969 73.859375 104.226562 C 87.703125 99.035156 95.492188 89.519531 100.972656 77.117188 C 109.625 56.351562 115.679688 53.464844 142.214844 40.488281 C 148.558594 37.316406 156.347656 33.566406 166.152344 28.375 C 191.824219 15.105469 206.820312 5.878906 216.339844 -6.8125 C 223.261719 -16.042969 227.585938 -27.289062 231.046875 -43.152344 L 233.066406 -43.152344 C 229.605469 -26.714844 225.277344 -15.175781 218.070312 -5.371094 C 208.261719 7.320312 192.976562 16.835938 167.019531 30.394531 C 157.5 35.296875 149.714844 39.046875 143.082031 42.507812 C 117.125 54.910156 111.355469 57.792969 102.992188 77.980469 C 97.222656 90.960938 89.148438 100.765625 74.726562 106.246094 C 60.304688 111.726562 40.40625 112.589844 10.988281 107.6875 C -35.160156 99.613281 -61.40625 132.203125 -74.671875 157.296875 Z M -74.671875 137.394531 C -61.695312 114.035156 -36.890625 85.480469 6.371094 93.265625 C 32.328125 97.59375 50.210938 97.015625 62.902344 92.402344 C 75.589844 87.789062 83.378906 79.421875 88.570312 68.464844 C 97.222656 50.582031 103.28125 47.410156 126.351562 36.160156 C 132.699219 33.277344 140.195312 29.527344 149.136719 24.914062 C 172.789062 12.511719 186.632812 3.570312 195.859375 -8.253906 C 202.492188 -17.195312 206.53125 -28.15625 209.992188 -43.152344 L 212.011719 -43.152344 C 208.839844 -27.578125 204.511719 -16.332031 197.300781 -7.101562 C 188.074219 5.300781 173.941406 14.242188 150.003906 26.644531 C 141.0625 31.546875 133.5625 35.007812 127.507812 38.179688 C 104.722656 49.140625 98.664062 52.023438 90.300781 69.328125 C 84.820312 80.867188 77.035156 89.519531 63.765625 94.421875 C 50.5 99.035156 32.328125 99.902344 6.082031 95.285156 C -38.332031 87.5 -62.847656 118.359375 -74.671875 142.007812 Z M -74.671875 121.820312 C -63.136719 100.1875 -40.0625 73.367188 1.179688 80.867188 C 24.253906 84.902344 40.40625 84.328125 51.941406 80.289062 C 63.765625 76.539062 70.976562 69.328125 76.167969 59.8125 C 84.53125 44.523438 90.878906 41.640625 110.777344 31.835938 C 116.546875 28.949219 123.46875 25.777344 132.121094 21.164062 C 153.464844 9.914062 166.730469 1.550781 175.09375 -9.984375 C 181.726562 -18.636719 185.765625 -29.019531 188.9375 -43.152344 L 190.957031 -43.152344 C 187.785156 -28.445312 183.746094 -17.773438 176.824219 -8.542969 C 168.171875 2.992188 154.90625 11.933594 133.273438 23.183594 C 124.621094 27.507812 117.410156 30.96875 111.644531 33.855469 C 92.320312 43.371094 85.972656 46.253906 77.898438 60.964844 C 72.417969 70.769531 64.921875 78.558594 52.808594 82.308594 C 40.695312 86.34375 24.253906 86.921875 0.890625 83.171875 C -41.214844 75.386719 -64 104.804688 -74.671875 126.722656 Z M -74.671875 106.535156 C -64.289062 86.34375 -42.945312 61.253906 -3.722656 68.464844 C 16.179688 71.925781 30.597656 71.636719 41.269531 68.464844 C 51.652344 65.292969 58.574219 59.234375 63.765625 51.445312 C 71.84375 38.757812 78.1875 35.585938 94.914062 27.796875 C 100.394531 24.914062 107.027344 22.027344 115.394531 17.703125 C 134.429688 7.609375 146.542969 -0.753906 154.617188 -11.714844 C 160.960938 -19.792969 164.710938 -29.886719 167.597656 -43.152344 L 169.902344 -43.152344 C 167.019531 -29.308594 162.980469 -18.925781 156.347656 -10.273438 C 147.984375 0.6875 135.871094 9.339844 116.257812 19.433594 C 108.183594 23.757812 101.261719 26.933594 95.78125 29.527344 C 79.628906 37.316406 73.285156 40.488281 65.496094 52.601562 C 60.015625 60.964844 52.808594 67.308594 41.847656 70.484375 C 30.886719 73.65625 16.179688 74.230469 -4.011719 70.769531 L -4.300781 70.769531 C -44.675781 63.273438 -65.15625 91.25 -74.671875 111.4375 Z M -74.671875 91.25 C -65.441406 72.5 -46.121094 49.140625 -8.914062 56.0625 C 8.101562 59.234375 20.792969 58.945312 30.3125 56.640625 C 39.539062 54.042969 46.171875 49.140625 51.363281 42.792969 C 59.152344 32.988281 65.496094 29.816406 78.765625 23.472656 C 84.242188 21.164062 90.589844 17.992188 98.375 13.953125 C 115.394531 5.011719 126.640625 -3.0625 134.140625 -13.15625 C 140.195312 -21.234375 143.945312 -30.460938 146.542969 -43.152344 L 148.847656 -43.152344 C 145.964844 -30.175781 141.925781 -20.367188 135.871094 -12.003906 C 128.082031 -1.332031 116.546875 6.742188 99.242188 15.683594 C 91.453125 20.011719 85.109375 22.894531 79.628906 25.488281 C 66.652344 31.546875 60.304688 34.71875 53.09375 43.949219 C 47.617188 50.871094 40.695312 56.0625 30.886719 58.65625 C 20.792969 61.253906 8.101562 61.253906 -9.203125 58.371094 C -47.851562 51.160156 -66.597656 77.691406 -74.671875 96.152344 Z M -74.671875 75.960938 C -66.597656 58.945312 -49.292969 37.027344 -14.105469 43.949219 C 0.0273438 46.253906 10.699219 46.253906 19.351562 44.523438 C 27.714844 42.792969 33.773438 39.046875 38.964844 34.140625 C 46.171875 27.21875 52.230469 24.335938 62.324219 19.433594 C 67.515625 17.125 73.574219 14.242188 81.359375 10.203125 C 96.359375 2.417969 106.453125 -5.082031 113.664062 -14.886719 C 119.140625 -22.386719 122.890625 -31.617188 125.488281 -43.152344 L 127.792969 -43.152344 C 125.199219 -31.039062 121.160156 -21.523438 115.394531 -13.734375 C 108.183594 -3.640625 97.511719 4.148438 82.511719 12.222656 C 74.4375 16.261719 68.382812 19.144531 63.191406 21.453125 C 53.382812 26.066406 47.328125 28.949219 40.40625 35.585938 C 35.214844 41.0625 28.578125 44.8125 19.640625 46.542969 C 10.988281 48.5625 0.0273438 48.5625 -14.394531 45.96875 C -51.3125 38.757812 -68.039062 64.425781 -74.671875 81.152344 Z M -74.671875 60.675781 C -67.75 45.101562 -52.464844 24.914062 -19.007812 31.546875 C -7.761719 33.566406 0.890625 33.855469 8.390625 32.699219 C 15.890625 31.546875 21.65625 28.949219 26.5625 25.488281 C 32.617188 21.164062 38.097656 18.855469 45.019531 15.972656 C 50.210938 13.664062 56.554688 10.78125 64.34375 6.742188 C 77.320312 -0.179688 86.550781 -7.390625 93.183594 -16.617188 C 98.375 -23.828125 102.125 -32.480469 104.433594 -43.152344 L 106.742188 -43.152344 C 104.144531 -31.90625 100.394531 -22.964844 94.914062 -15.175781 C 87.992188 -5.660156 78.476562 1.550781 65.496094 8.472656 C 57.421875 12.800781 51.363281 15.394531 45.886719 17.703125 C 38.964844 20.875 33.773438 23.183594 28.003906 27.21875 C 22.523438 30.96875 16.464844 33.566406 8.679688 34.71875 C 1.179688 35.871094 -8.046875 35.585938 -19.296875 33.566406 L -19.585938 33.566406 C -55.058594 26.644531 -69.480469 51.445312 -74.671875 66.445312 Z M -74.671875 45.390625 C -69.191406 31.835938 -55.925781 12.511719 -24.199219 19.144531 C -15.835938 20.585938 -8.914062 21.164062 -2.570312 20.585938 C 3.777344 20.296875 9.257812 18.855469 14.449219 16.835938 C 17.910156 15.394531 21.082031 14.242188 24.253906 13.089844 C 31.175781 10.492188 38.386719 7.898438 47.617188 2.992188 C 58.285156 -2.773438 66.363281 -9.410156 72.707031 -18.0625 C 77.609375 -24.984375 81.070312 -33.347656 83.378906 -43.152344 L 85.6875 -43.152344 C 83.378906 -32.769531 79.628906 -24.117188 74.4375 -16.90625 C 68.09375 -7.964844 59.441406 -1.042969 48.480469 4.722656 C 39.25 9.914062 32.042969 12.511719 24.832031 15.105469 C 21.65625 16.261719 18.484375 17.414062 15.3125 18.855469 C 10.121094 20.875 4.351562 22.316406 -2.28125 22.894531 C -8.914062 23.183594 -16.125 22.894531 -24.488281 21.164062 C -59.386719 13.953125 -71.210938 39.621094 -74.671875 52.023438 Z M -74.671875 45.390625 " fill-opacity="1" fill-rule="nonzero"/></g><g clip-path="url(#ab7073a1c1)"><path fill="#f8e29c" d="M -6.65625 541.714844 C -3.371094 542.238281 -0.15625 543.089844 2.941406 544.304688 C 3.136719 544.378906 4.410156 544.902344 3.21875 544.40625 C 2.03125 543.910156 3.292969 544.449219 3.484375 544.535156 C 4.222656 544.867188 4.953125 545.222656 5.671875 545.597656 C 7.109375 546.34375 8.511719 547.160156 9.871094 548.046875 C 10.550781 548.488281 11.222656 548.949219 11.882812 549.421875 C 12.101562 549.582031 12.316406 549.746094 12.539062 549.902344 C 13.757812 550.777344 11.214844 548.835938 12.382812 549.777344 C 13.660156 550.8125 14.910156 551.871094 16.109375 552.996094 C 18.550781 555.289062 20.761719 557.78125 22.855469 560.394531 C 23.597656 561.316406 22.570312 560.050781 22.515625 559.949219 C 22.707031 560.304688 23.039062 560.644531 23.277344 560.972656 C 23.785156 561.660156 24.277344 562.355469 24.761719 563.058594 C 25.738281 564.480469 26.667969 565.929688 27.558594 567.402344 C 29.285156 570.269531 30.851562 573.226562 32.277344 576.25 C 32.65625 577.046875 33.019531 577.84375 33.375 578.648438 C 33.542969 579.027344 33.679688 579.507812 33.902344 579.859375 C 33.835938 579.753906 33.234375 578.238281 33.695312 579.367188 C 34.386719 581.0625 35.058594 582.769531 35.679688 584.496094 C 36.84375 587.714844 37.871094 590.980469 38.765625 594.285156 C 42.890625 609.480469 44.449219 625.265625 47.367188 640.710938 C 50.386719 656.699219 54.875 672.820312 63.800781 686.609375 C 77.757812 708.164062 100.050781 721.449219 122.921875 731.839844 C 145.785156 742.226562 169.96875 750.425781 190.976562 764.472656 C 192.171875 765.273438 193.359375 766.097656 194.53125 766.9375 C 195.167969 767.394531 195.800781 767.859375 196.429688 768.328125 C 196.640625 768.484375 196.847656 768.640625 197.054688 768.800781 C 198.597656 769.96875 196.183594 768.101562 197.160156 768.878906 C 199.507812 770.746094 201.804688 772.675781 204 774.722656 C 206.300781 776.867188 208.5 779.117188 210.574219 781.480469 C 211.644531 782.703125 212.832031 783.933594 213.730469 785.289062 C 212.667969 783.691406 214.164062 785.878906 214.46875 786.296875 C 215.171875 787.265625 215.855469 788.246094 216.523438 789.238281 C 218.707031 792.5 220.679688 795.898438 222.453125 799.398438 C 223.300781 801.074219 224.105469 802.777344 224.863281 804.496094 C 225.007812 804.820312 225.742188 806.4375 224.953125 804.671875 C 225.164062 805.140625 225.347656 805.621094 225.542969 806.097656 C 225.988281 807.210938 226.421875 808.332031 226.835938 809.457031 C 229.570312 816.898438 231.554688 824.605469 232.933594 832.40625 C 233.265625 834.273438 233.550781 836.148438 233.824219 838.027344 C 234.082031 839.808594 233.628906 836.386719 233.839844 838.175781 C 233.902344 838.6875 233.96875 839.199219 234.027344 839.710938 C 234.148438 840.734375 234.257812 841.761719 234.359375 842.785156 C 234.554688 844.730469 235.027344 846.417969 236.453125 847.84375 C 237.695312 849.082031 239.730469 850.015625 241.511719 849.9375 C 245.066406 849.777344 249.0625 846.773438 248.664062 842.785156 C 246.9375 825.566406 242.960938 808.667969 235.261719 793.09375 C 228.820312 780.066406 219.527344 768.578125 208.195312 759.492188 C 187.976562 743.28125 163.730469 734.035156 140.164062 723.902344 C 128.664062 718.957031 117.210938 713.765625 106.488281 707.269531 C 103.832031 705.660156 101.21875 703.972656 98.675781 702.183594 C 97.519531 701.375 96.378906 700.539062 95.25 699.6875 C 94.867188 699.394531 93.789062 698.46875 95.480469 699.867188 C 95.183594 699.625 94.875 699.394531 94.574219 699.15625 C 93.972656 698.679688 93.378906 698.195312 92.789062 697.703125 C 88.160156 693.855469 83.871094 689.59375 80.085938 684.910156 C 79.84375 684.609375 79.605469 684.304688 79.363281 684 C 78.457031 682.859375 80.398438 685.386719 79.53125 684.214844 C 79.066406 683.585938 78.597656 682.960938 78.144531 682.324219 C 77.183594 680.972656 76.261719 679.589844 75.382812 678.179688 C 73.304688 674.839844 71.480469 671.347656 69.875 667.757812 C 69.667969 667.296875 69.433594 666.828125 69.261719 666.351562 C 69.914062 668.164062 69.339844 666.519531 69.199219 666.175781 C 68.820312 665.230469 68.453125 664.277344 68.097656 663.316406 C 67.386719 661.398438 66.730469 659.460938 66.121094 657.503906 C 64.945312 653.734375 63.941406 649.914062 63.058594 646.066406 C 59.351562 629.933594 57.695312 613.417969 54.199219 597.246094 C 48.351562 570.195312 33.703125 540.796875 6.363281 530.363281 C 3.382812 529.226562 0.292969 528.425781 -2.855469 527.921875 C -4.816406 527.609375 -6.585938 527.601562 -8.367188 528.644531 C -9.851562 529.511719 -11.265625 531.214844 -11.652344 532.917969 C -12.433594 536.347656 -10.609375 541.085938 -6.65625 541.714844 Z M -6.65625 541.714844 " fill-opacity="1" fill-rule="nonzero"/></g><path fill="#f8e29c" d="M -11.394531 638.113281 C -11.308594 638.179688 -11.226562 638.242188 -11.140625 638.304688 C -11.625 637.933594 -12.105469 637.5625 -12.589844 637.1875 C -10.351562 638.929688 -8.367188 640.941406 -6.625 643.175781 C -6.996094 642.695312 -7.367188 642.210938 -7.742188 641.730469 C -5.496094 644.65625 -3.707031 647.875 -2.261719 651.261719 C -2.503906 650.691406 -2.746094 650.125 -2.984375 649.554688 C -0.613281 655.222656 0.777344 661.234375 1.605469 667.308594 C 1.519531 666.675781 1.433594 666.042969 1.347656 665.40625 C 3.148438 679 2.449219 692.847656 5.492188 706.289062 C 8.164062 718.097656 14.113281 728.746094 21.871094 737.945312 C 29.207031 746.648438 38.34375 753.875 47.992188 759.847656 C 58.878906 766.582031 70.757812 771.585938 82.699219 776.109375 C 95.054688 780.789062 107.625 784.882812 119.890625 789.796875 C 121.398438 790.402344 122.902344 791.019531 124.398438 791.652344 C 123.832031 791.410156 123.261719 791.171875 122.691406 790.929688 C 132.496094 795.078125 142.132812 799.835938 150.59375 806.367188 C 150.113281 805.992188 149.628906 805.621094 149.148438 805.25 C 153.351562 808.523438 157.21875 812.214844 160.507812 816.414062 C 160.132812 815.933594 159.761719 815.449219 159.386719 814.96875 C 162.179688 818.582031 164.519531 822.507812 166.300781 826.714844 C 166.058594 826.144531 165.820312 825.574219 165.578125 825.003906 C 167.042969 828.539062 168.085938 832.214844 168.601562 836.007812 C 168.515625 835.371094 168.433594 834.738281 168.347656 834.105469 C 168.710938 836.972656 168.769531 839.855469 168.484375 842.734375 C 168.316406 844.453125 169.40625 846.617188 170.578125 847.792969 C 171.820312 849.03125 173.855469 849.964844 175.636719 849.886719 C 177.484375 849.800781 179.40625 849.195312 180.691406 847.792969 C 182.046875 846.316406 182.59375 844.722656 182.789062 842.734375 C 183.730469 833.175781 181.0625 823.453125 176.535156 815.082031 C 171.890625 806.5 165.074219 799.570312 157.386719 793.691406 C 150.398438 788.34375 142.566406 784.199219 134.558594 780.605469 C 125.328125 776.457031 115.847656 772.914062 106.324219 769.5 C 96.160156 765.863281 85.953125 762.324219 75.996094 758.136719 C 76.566406 758.375 77.136719 758.617188 77.703125 758.855469 C 66.105469 753.960938 54.933594 748.109375 44.941406 740.394531 C 45.425781 740.765625 45.90625 741.140625 46.390625 741.511719 C 40.230469 736.726562 34.570312 731.292969 29.792969 725.117188 C 30.164062 725.597656 30.535156 726.082031 30.910156 726.5625 C 27.316406 721.882812 24.269531 716.8125 21.957031 711.382812 C 22.195312 711.949219 22.4375 712.519531 22.679688 713.089844 C 20.289062 707.394531 18.847656 701.417969 18.003906 695.308594 C 18.089844 695.945312 18.175781 696.578125 18.261719 697.210938 C 16.867188 686.816406 17.054688 676.285156 15.710938 665.886719 C 14.476562 656.3125 12.238281 646.773438 7.242188 638.394531 C 4.261719 633.386719 0.429688 629.28125 -4.175781 625.761719 C -5.546875 624.714844 -8.113281 624.609375 -9.6875 625.042969 C -11.347656 625.5 -13.144531 626.78125 -13.960938 628.328125 C -14.839844 629.988281 -15.277344 632 -14.683594 633.839844 C -14.441406 634.410156 -14.203125 634.976562 -13.960938 635.546875 C -13.324219 636.621094 -12.46875 637.476562 -11.394531 638.113281 Z M -11.394531 638.113281 " fill-opacity="1" fill-rule="nonzero"/><path fill="#f8e29c" d="M -15.359375 774.074219 C -12.867188 781.273438 -8.808594 787.652344 -3.582031 793.179688 C 1.296875 798.34375 7.128906 802.6875 13.207031 806.332031 C 26.449219 814.269531 41.375 818.820312 54.859375 826.292969 C 57.859375 827.960938 60.878906 829.597656 63.878906 831.261719 C 66.398438 832.65625 68.890625 834.113281 71.179688 835.875 C 70.695312 835.5 70.210938 835.128906 69.730469 834.757812 C 71.414062 836.070312 72.949219 837.546875 74.265625 839.234375 C 73.894531 838.75 73.523438 838.269531 73.148438 837.785156 C 74.429688 839.457031 75.460938 841.277344 76.292969 843.207031 C 76.054688 842.636719 75.8125 842.066406 75.574219 841.5 C 76.199219 842.980469 76.703125 844.5 77.125 846.050781 C 77.597656 847.785156 78.863281 849.421875 80.414062 850.324219 C 81.945312 851.222656 84.203125 851.601562 85.921875 851.046875 C 89.621094 849.851562 91.96875 846.117188 90.917969 842.25 C 89.335938 836.425781 86.542969 830.902344 82.179688 826.660156 C 78.386719 822.980469 73.75 820.34375 69.140625 817.839844 C 63.289062 814.664062 57.507812 811.414062 51.445312 808.644531 C 44.78125 805.597656 37.984375 802.847656 31.355469 799.722656 C 24.6875 796.578125 18.222656 793.015625 12.371094 788.507812 C 12.855469 788.878906 13.339844 789.253906 13.820312 789.625 C 9.902344 786.582031 6.292969 783.148438 3.238281 779.234375 C 3.613281 779.714844 3.984375 780.199219 4.355469 780.679688 C 2.082031 777.734375 0.15625 774.546875 -1.308594 771.121094 C -1.070312 771.691406 -0.828125 772.261719 -0.585938 772.832031 C -0.941406 771.988281 -1.269531 771.136719 -1.566406 770.269531 C -2.179688 768.5 -3.199219 766.964844 -4.855469 765.996094 C -6.386719 765.101562 -8.644531 764.722656 -10.363281 765.277344 C -12.09375 765.835938 -13.765625 766.910156 -14.636719 768.5625 C -15.503906 770.203125 -15.988281 772.261719 -15.359375 774.074219 Z M -15.359375 774.074219 " fill-opacity="1" fill-rule="nonzero"/><g clip-path="url(#cfeb4e344c)"><path fill="#f8e29c" d="M 489.949219 -15.753906 C 484.308594 -37.140625 468.339844 -43.449219 467.726562 -66.066406 C 467.613281 -70.308594 467.277344 -82.089844 474.371094 -88.792969 C 482.691406 -96.664062 498.773438 -95.214844 514.183594 -83.988281 C 527.640625 -72.320312 553.4375 -53.890625 581.359375 -59.53125 C 586.71875 -60.59375 590.964844 -62.101562 596.828125 -64.78125 C 611.234375 -71.371094 620.835938 -81.589844 648.253906 -98.789062 C 670.3125 -112.636719 699.515625 -120.789062 720.398438 -104.929688 C 731.175781 -96.722656 737.710938 -83.542969 747.480469 -73.9375 C 768.308594 -53.5 799.636719 -52.886719 827.5 -56.628906 C 855.363281 -60.3125 884.289062 -67.070312 910.980469 -57.578125 C 924.101562 -52.886719 937.058594 -42.722656 939.570312 -28.039062 C 942.585938 -10.394531 929.796875 5.6875 916.675781 16.6875 C 903.554688 27.6875 888.199219 37.90625 882.445312 54.773438 C 869.882812 91.679688 911.371094 131.773438 898.304688 168.515625 C 890.097656 191.632812 862.847656 200.738281 840.453125 195.542969 C 828.894531 192.863281 819.011719 190.683594 780.425781 160.753906 C 731.511719 122.839844 718.78125 107.597656 687.84375 96.707031 C 668.804688 90.007812 657.355469 90.0625 650.265625 90.730469 C 640.269531 91.679688 629.714844 94.808594 599.394531 113.460938 C 583.203125 123.398438 566.449219 140.148438 548.582031 145.679688 C 528.03125 152.042969 502.457031 139.757812 489.949219 121.835938 C 473.867188 98.828125 478.558594 66.890625 483.304688 34.5 C 487.660156 4.125 494.027344 -0.230469 489.949219 -15.753906 Z M 489.949219 -15.753906 " fill-opacity="1" fill-rule="nonzero"/></g></svg>