<svg xmlns="http://www.w3.org/2000/svg" xmlns:xlink="http://www.w3.org/1999/xlink" width="500" zoomAndPan="magnify" viewBox="0 0 375 374.999991" height="500" preserveAspectRatio="xMidYMid meet" version="1.0"><defs><g/><clipPath id="432b0dc46c"><path d="M 21.054688 37.5 L 330 37.5 L 330 304 L 21.054688 304 Z M 21.054688 37.5 " clip-rule="nonzero"/></clipPath><clipPath id="0e7eaf151f"><path d="M 130 318 L 176 318 L 176 362.25 L 130 362.25 Z M 130 318 " clip-rule="nonzero"/></clipPath><clipPath id="d633bdc998"><path d="M 234 318 L 279 318 L 279 362.25 L 234 362.25 Z M 234 318 " clip-rule="nonzero"/></clipPath></defs><g clip-path="url(#432b0dc46c)"><path fill="#5c1a99" d="M 286.476562 273.816406 L 133.578125 273.816406 C 132.703125 273.847656 131.835938 273.789062 130.972656 273.644531 C 130.109375 273.5 129.273438 273.269531 128.457031 272.953125 C 127.640625 272.640625 126.863281 272.25 126.125 271.777344 C 125.386719 271.308594 124.703125 270.765625 124.074219 270.160156 C 123.445312 269.550781 122.882812 268.886719 122.390625 268.164062 C 121.894531 267.445312 121.476562 266.679688 121.132812 265.875 C 120.792969 265.070312 120.535156 264.238281 120.359375 263.382812 C 120.1875 262.523438 120.097656 261.660156 120.097656 260.785156 C 120.097656 259.910156 120.1875 259.042969 120.359375 258.1875 C 120.535156 257.328125 120.792969 256.496094 121.132812 255.691406 C 121.476562 254.886719 121.894531 254.125 122.390625 253.402344 C 122.882812 252.679688 123.445312 252.015625 124.074219 251.40625 C 124.703125 250.800781 125.386719 250.261719 126.125 249.789062 C 126.863281 249.320312 127.640625 248.925781 128.457031 248.613281 C 129.273438 248.296875 130.109375 248.070312 130.972656 247.921875 C 131.835938 247.777344 132.703125 247.71875 133.578125 247.75 L 286.476562 247.75 C 287.3125 247.75 288.140625 247.679688 288.964844 247.539062 C 289.785156 247.402344 290.589844 247.191406 291.378906 246.917969 C 292.167969 246.640625 292.925781 246.300781 293.65625 245.894531 C 294.382812 245.488281 295.074219 245.027344 295.726562 244.503906 C 296.378906 243.984375 296.980469 243.410156 297.535156 242.785156 C 298.089844 242.160156 298.585938 241.496094 299.027344 240.785156 C 299.46875 240.078125 299.847656 239.339844 300.164062 238.566406 C 300.476562 237.792969 300.726562 237 300.90625 236.183594 L 328.71875 111.070312 C 328.839844 110.53125 328.925781 109.988281 328.984375 109.441406 C 329.042969 108.890625 329.070312 108.34375 329.066406 107.789062 C 329.0625 107.238281 329.03125 106.691406 328.964844 106.144531 C 328.902344 105.597656 328.804688 105.054688 328.679688 104.515625 C 328.554688 103.980469 328.398438 103.453125 328.214844 102.933594 C 328.03125 102.414062 327.816406 101.90625 327.578125 101.410156 C 327.335938 100.917969 327.066406 100.4375 326.773438 99.96875 C 326.476562 99.503906 326.15625 99.058594 325.8125 98.628906 C 325.464844 98.199219 325.097656 97.789062 324.707031 97.402344 C 324.316406 97.011719 323.90625 96.648438 323.472656 96.304688 C 323.042969 95.960938 322.59375 95.644531 322.125 95.351562 C 321.65625 95.0625 321.175781 94.796875 320.679688 94.558594 C 320.179688 94.320312 319.671875 94.109375 319.152344 93.929688 C 318.632812 93.746094 318.101562 93.597656 317.566406 93.472656 C 317.027344 93.351562 316.484375 93.261719 315.9375 93.199219 C 315.390625 93.140625 314.839844 93.109375 314.289062 93.109375 L 105.769531 93.109375 C 104.707031 93.105469 103.660156 93.210938 102.621094 93.433594 L 92.371094 48.945312 C 92.183594 48.136719 91.933594 47.351562 91.613281 46.585938 C 91.292969 45.820312 90.914062 45.085938 90.46875 44.386719 C 90.027344 43.683594 89.527344 43.023438 88.976562 42.40625 C 88.421875 41.789062 87.820312 41.222656 87.171875 40.707031 C 86.519531 40.191406 85.832031 39.734375 85.105469 39.332031 C 84.378906 38.933594 83.625 38.597656 82.84375 38.324219 C 82.058594 38.050781 81.257812 37.84375 80.441406 37.707031 C 79.625 37.566406 78.800781 37.5 77.96875 37.5 L 36.261719 37.5 C 35.289062 37.5 34.332031 37.59375 33.378906 37.785156 C 32.429688 37.972656 31.503906 38.253906 30.609375 38.625 C 29.710938 38.996094 28.859375 39.449219 28.054688 39.988281 C 27.25 40.527344 26.503906 41.140625 25.816406 41.824219 C 25.132812 42.511719 24.519531 43.257812 23.980469 44.0625 C 23.441406 44.871094 22.984375 45.722656 22.613281 46.617188 C 22.242188 47.515625 21.964844 48.4375 21.773438 49.386719 C 21.585938 50.339844 21.492188 51.300781 21.492188 52.269531 C 21.492188 53.238281 21.585938 54.199219 21.773438 55.152344 C 21.964844 56.101562 22.242188 57.027344 22.613281 57.921875 C 22.984375 58.816406 23.441406 59.667969 23.980469 60.476562 C 24.519531 61.28125 25.132812 62.027344 25.816406 62.714844 C 26.503906 63.398438 27.25 64.011719 28.054688 64.550781 C 28.859375 65.089844 29.710938 65.542969 30.609375 65.914062 C 31.503906 66.285156 32.429688 66.566406 33.378906 66.757812 C 34.332031 66.945312 35.289062 67.039062 36.261719 67.039062 L 66.214844 67.039062 L 103.90625 230.351562 C 102.394531 231.816406 101.003906 233.386719 99.726562 235.058594 C 98.449219 236.734375 97.300781 238.492188 96.285156 240.335938 C 95.269531 242.179688 94.394531 244.085938 93.664062 246.058594 C 92.929688 248.035156 92.347656 250.050781 91.914062 252.109375 C 91.484375 254.171875 91.203125 256.25 91.082031 258.351562 C 90.957031 260.453125 90.988281 262.550781 91.175781 264.648438 C 91.367188 266.746094 91.707031 268.816406 92.203125 270.863281 C 92.699219 272.90625 93.34375 274.90625 94.136719 276.855469 C 94.929688 278.804688 95.859375 280.6875 96.933594 282.496094 C 98.003906 284.308594 99.203125 286.03125 100.53125 287.664062 C 101.859375 289.296875 103.300781 290.824219 104.855469 292.242188 C 106.410156 293.664062 108.0625 294.960938 109.808594 296.132812 C 111.554688 297.308594 113.378906 298.34375 115.28125 299.25 C 117.183594 300.152344 119.140625 300.910156 121.152344 301.519531 C 123.167969 302.132812 125.214844 302.59375 127.296875 302.902344 C 129.378906 303.207031 131.472656 303.359375 133.578125 303.359375 L 286.476562 303.359375 C 287.445312 303.359375 288.40625 303.261719 289.359375 303.074219 C 290.308594 302.886719 291.234375 302.605469 292.128906 302.234375 C 293.023438 301.863281 293.875 301.40625 294.683594 300.867188 C 295.488281 300.328125 296.234375 299.71875 296.921875 299.03125 C 297.605469 298.347656 298.21875 297.601562 298.757812 296.792969 C 299.296875 295.988281 299.75 295.136719 300.121094 294.238281 C 300.492188 293.34375 300.773438 292.421875 300.964844 291.46875 C 301.152344 290.519531 301.246094 289.558594 301.246094 288.589844 C 301.246094 287.617188 301.152344 286.65625 300.964844 285.707031 C 300.773438 284.753906 300.492188 283.832031 300.121094 282.9375 C 299.75 282.039062 299.296875 281.1875 298.757812 280.382812 C 298.21875 279.574219 297.605469 278.828125 296.921875 278.144531 C 296.234375 277.457031 295.488281 276.847656 294.683594 276.308594 C 293.875 275.769531 293.023438 275.3125 292.128906 274.941406 C 291.234375 274.570312 290.308594 274.292969 289.359375 274.101562 C 288.40625 273.914062 287.445312 273.816406 286.476562 273.816406 Z M 286.476562 273.816406 " fill-opacity="1" fill-rule="nonzero"/></g><g clip-path="url(#0e7eaf151f)"><path fill="#5c1a99" d="M 175.273438 340.28125 C 175.273438 341.007812 175.238281 341.730469 175.167969 342.453125 C 175.097656 343.175781 174.992188 343.894531 174.847656 344.605469 C 174.707031 345.316406 174.53125 346.019531 174.320312 346.714844 C 174.109375 347.410156 173.867188 348.089844 173.589844 348.761719 C 173.3125 349.429688 173 350.085938 172.660156 350.726562 C 172.316406 351.367188 171.945312 351.988281 171.539062 352.589844 C 171.136719 353.195312 170.707031 353.777344 170.246094 354.335938 C 169.785156 354.898438 169.296875 355.433594 168.785156 355.949219 C 168.273438 356.460938 167.734375 356.949219 167.175781 357.410156 C 166.613281 357.867188 166.03125 358.300781 165.429688 358.703125 C 164.824219 359.105469 164.203125 359.480469 163.5625 359.820312 C 162.921875 360.164062 162.269531 360.472656 161.597656 360.75 C 160.929688 361.027344 160.246094 361.273438 159.550781 361.484375 C 158.855469 361.695312 158.152344 361.871094 157.441406 362.011719 C 156.730469 362.152344 156.011719 362.257812 155.292969 362.332031 C 154.570312 362.402344 153.84375 362.4375 153.121094 362.4375 C 152.394531 362.4375 151.671875 362.402344 150.949219 362.332031 C 150.226562 362.257812 149.507812 362.152344 148.796875 362.011719 C 148.085938 361.871094 147.382812 361.695312 146.6875 361.484375 C 145.996094 361.273438 145.3125 361.027344 144.640625 360.75 C 143.972656 360.472656 143.316406 360.164062 142.675781 359.820312 C 142.035156 359.480469 141.414062 359.105469 140.8125 358.703125 C 140.207031 358.300781 139.625 357.867188 139.066406 357.410156 C 138.503906 356.949219 137.96875 356.460938 137.453125 355.949219 C 136.941406 355.433594 136.453125 354.898438 135.992188 354.335938 C 135.535156 353.777344 135.101562 353.195312 134.699219 352.589844 C 134.296875 351.988281 133.921875 351.367188 133.582031 350.726562 C 133.238281 350.085938 132.929688 349.429688 132.652344 348.761719 C 132.375 348.089844 132.128906 347.410156 131.917969 346.714844 C 131.707031 346.019531 131.53125 345.316406 131.390625 344.605469 C 131.25 343.894531 131.144531 343.175781 131.070312 342.453125 C 131 341.730469 130.964844 341.007812 130.964844 340.28125 C 130.964844 339.558594 131 338.832031 131.070312 338.109375 C 131.144531 337.390625 131.25 336.671875 131.390625 335.960938 C 131.53125 335.25 131.707031 334.546875 131.917969 333.851562 C 132.128906 333.15625 132.375 332.476562 132.652344 331.804688 C 132.929688 331.132812 133.238281 330.480469 133.582031 329.839844 C 133.921875 329.199219 134.296875 328.578125 134.699219 327.972656 C 135.101562 327.371094 135.535156 326.789062 135.992188 326.226562 C 136.453125 325.667969 136.941406 325.128906 137.453125 324.617188 C 137.96875 324.105469 138.503906 323.617188 139.066406 323.15625 C 139.625 322.695312 140.207031 322.265625 140.8125 321.863281 C 141.414062 321.457031 142.035156 321.085938 142.675781 320.742188 C 143.316406 320.402344 143.972656 320.09375 144.640625 319.8125 C 145.3125 319.535156 145.996094 319.292969 146.6875 319.082031 C 147.382812 318.871094 148.085938 318.695312 148.796875 318.554688 C 149.507812 318.410156 150.226562 318.304688 150.949219 318.234375 C 151.671875 318.164062 152.394531 318.128906 153.121094 318.128906 C 153.84375 318.128906 154.570312 318.164062 155.292969 318.234375 C 156.011719 318.304688 156.730469 318.410156 157.441406 318.554688 C 158.152344 318.695312 158.855469 318.871094 159.550781 319.082031 C 160.246094 319.292969 160.929688 319.535156 161.597656 319.8125 C 162.269531 320.09375 162.921875 320.402344 163.5625 320.742188 C 164.203125 321.085938 164.824219 321.457031 165.429688 321.863281 C 166.03125 322.265625 166.613281 322.695312 167.175781 323.15625 C 167.734375 323.617188 168.273438 324.105469 168.785156 324.617188 C 169.296875 325.128906 169.785156 325.667969 170.246094 326.226562 C 170.707031 326.789062 171.136719 327.371094 171.539062 327.972656 C 171.945312 328.578125 172.316406 329.199219 172.660156 329.839844 C 173 330.480469 173.3125 331.132812 173.589844 331.804688 C 173.867188 332.476562 174.109375 333.15625 174.320312 333.851562 C 174.53125 334.546875 174.707031 335.25 174.847656 335.960938 C 174.992188 336.671875 175.097656 337.390625 175.167969 338.109375 C 175.238281 338.832031 175.273438 339.558594 175.273438 340.28125 Z M 175.273438 340.28125 " fill-opacity="1" fill-rule="nonzero"/></g><g clip-path="url(#d633bdc998)"><path fill="#5c1a99" d="M 278.664062 340.28125 C 278.664062 341.007812 278.628906 341.730469 278.558594 342.453125 C 278.484375 343.175781 278.378906 343.894531 278.238281 344.605469 C 278.097656 345.316406 277.921875 346.019531 277.710938 346.714844 C 277.5 347.410156 277.253906 348.089844 276.976562 348.761719 C 276.699219 349.429688 276.390625 350.085938 276.046875 350.726562 C 275.707031 351.367188 275.332031 351.988281 274.929688 352.589844 C 274.527344 353.195312 274.09375 353.777344 273.636719 354.335938 C 273.175781 354.898438 272.6875 355.433594 272.175781 355.949219 C 271.660156 356.460938 271.125 356.949219 270.5625 357.410156 C 270.003906 357.867188 269.421875 358.300781 268.816406 358.703125 C 268.214844 359.105469 267.59375 359.480469 266.953125 359.820312 C 266.3125 360.164062 265.65625 360.472656 264.988281 360.75 C 264.316406 361.027344 263.632812 361.273438 262.941406 361.484375 C 262.246094 361.695312 261.542969 361.871094 260.832031 362.011719 C 260.121094 362.152344 259.402344 362.257812 258.679688 362.332031 C 257.957031 362.402344 257.234375 362.4375 256.507812 362.4375 C 255.785156 362.4375 255.058594 362.402344 254.335938 362.332031 C 253.617188 362.257812 252.898438 362.152344 252.1875 362.011719 C 251.476562 361.871094 250.773438 361.695312 250.078125 361.484375 C 249.382812 361.273438 248.699219 361.027344 248.03125 360.75 C 247.359375 360.472656 246.707031 360.164062 246.066406 359.820312 C 245.425781 359.480469 244.804688 359.105469 244.199219 358.703125 C 243.597656 358.300781 243.015625 357.867188 242.453125 357.410156 C 241.894531 356.949219 241.355469 356.460938 240.84375 355.949219 C 240.332031 355.433594 239.84375 354.898438 239.382812 354.335938 C 238.921875 353.777344 238.492188 353.195312 238.089844 352.589844 C 237.683594 351.988281 237.3125 351.367188 236.96875 350.726562 C 236.628906 350.085938 236.316406 349.429688 236.039062 348.761719 C 235.761719 348.089844 235.519531 347.410156 235.308594 346.714844 C 235.097656 346.019531 234.921875 345.316406 234.78125 344.605469 C 234.636719 343.894531 234.53125 343.175781 234.460938 342.453125 C 234.390625 341.730469 234.355469 341.007812 234.355469 340.28125 C 234.355469 339.558594 234.390625 338.832031 234.460938 338.109375 C 234.53125 337.390625 234.636719 336.671875 234.78125 335.960938 C 234.921875 335.25 235.097656 334.546875 235.308594 333.851562 C 235.519531 333.15625 235.761719 332.476562 236.039062 331.804688 C 236.316406 331.132812 236.628906 330.480469 236.96875 329.839844 C 237.3125 329.199219 237.683594 328.578125 238.089844 327.972656 C 238.492188 327.371094 238.921875 326.789062 239.382812 326.226562 C 239.84375 325.667969 240.332031 325.128906 240.84375 324.617188 C 241.355469 324.105469 241.894531 323.617188 242.453125 323.15625 C 243.015625 322.695312 243.597656 322.265625 244.199219 321.863281 C 244.804688 321.457031 245.425781 321.085938 246.066406 320.742188 C 246.707031 320.402344 247.359375 320.09375 248.03125 319.8125 C 248.699219 319.535156 249.382812 319.292969 250.078125 319.082031 C 250.773438 318.871094 251.476562 318.695312 252.1875 318.554688 C 252.898438 318.410156 253.617188 318.304688 254.335938 318.234375 C 255.058594 318.164062 255.785156 318.128906 256.507812 318.128906 C 257.234375 318.128906 257.957031 318.164062 258.679688 318.234375 C 259.402344 318.304688 260.121094 318.410156 260.832031 318.554688 C 261.542969 318.695312 262.246094 318.871094 262.941406 319.082031 C 263.632812 319.292969 264.316406 319.535156 264.988281 319.8125 C 265.65625 320.09375 266.3125 320.402344 266.953125 320.742188 C 267.59375 321.085938 268.214844 321.457031 268.816406 321.863281 C 269.421875 322.265625 270.003906 322.695312 270.5625 323.15625 C 271.125 323.617188 271.660156 324.105469 272.175781 324.617188 C 272.6875 325.128906 273.175781 325.667969 273.636719 326.226562 C 274.09375 326.789062 274.527344 327.371094 274.929688 327.972656 C 275.332031 328.578125 275.707031 329.199219 276.046875 329.839844 C 276.390625 330.480469 276.699219 331.132812 276.976562 331.804688 C 277.253906 332.476562 277.5 333.15625 277.710938 333.851562 C 277.921875 334.546875 278.097656 335.25 278.238281 335.960938 C 278.378906 336.671875 278.484375 337.390625 278.558594 338.109375 C 278.628906 338.832031 278.664062 339.558594 278.664062 340.28125 Z M 278.664062 340.28125 " fill-opacity="1" fill-rule="nonzero"/></g><g fill="#f8e29c" fill-opacity="1"><g transform="translate(134.691975, 166.949183)"><g><path d="M 14.34375 -22.6875 C 17.21875 -22.6875 19.613281 -21.585938 21.53125 -19.390625 C 23.445312 -17.203125 24.40625 -14.523438 24.40625 -11.359375 L 24.40625 -3.765625 C 24.40625 -3.097656 24.382812 -2.597656 24.34375 -2.265625 C 24.300781 -1.929688 24.164062 -1.550781 23.9375 -1.125 C 23.5625 -0.375 22.453125 0 20.609375 0 C 18.847656 0 17.753906 -0.375 17.328125 -1.125 C 17.097656 -1.550781 16.957031 -1.9375 16.90625 -2.28125 C 16.863281 -2.632812 16.84375 -3.15625 16.84375 -3.84375 L 16.84375 -11.40625 C 16.84375 -12.582031 16.507812 -13.503906 15.84375 -14.171875 C 15.1875 -14.835938 14.347656 -15.171875 13.328125 -15.171875 C 12.304688 -15.171875 11.40625 -14.859375 10.625 -14.234375 C 9.851562 -13.617188 9.40625 -12.921875 9.28125 -12.140625 L 9.28125 -3.765625 C 9.28125 -3.097656 9.257812 -2.597656 9.21875 -2.265625 C 9.175781 -1.929688 9.039062 -1.550781 8.8125 -1.125 C 8.4375 -0.375 7.328125 0 5.484375 0 C 3.671875 0 2.5625 -0.390625 2.15625 -1.171875 C 1.957031 -1.597656 1.835938 -1.96875 1.796875 -2.28125 C 1.753906 -2.601562 1.734375 -3.109375 1.734375 -3.796875 L 1.734375 -29.640625 C 1.734375 -30.296875 1.753906 -30.789062 1.796875 -31.125 C 1.835938 -31.457031 1.957031 -31.828125 2.15625 -32.234375 C 2.5625 -33.003906 3.6875 -33.390625 5.53125 -33.390625 C 7.34375 -33.390625 8.4375 -33.003906 8.8125 -32.234375 C 9.039062 -31.796875 9.175781 -31.410156 9.21875 -31.078125 C 9.257812 -30.753906 9.28125 -30.257812 9.28125 -29.59375 L 9.28125 -20.046875 C 10.726562 -21.804688 12.414062 -22.6875 14.34375 -22.6875 Z M 14.34375 -22.6875 "/></g></g></g><g fill="#f8e29c" fill-opacity="1"><g transform="translate(160.825175, 166.949183)"><g><path d="M 1.078125 -11.359375 C 1.078125 -14.816406 2.285156 -17.664062 4.703125 -19.90625 C 7.128906 -22.15625 9.894531 -23.28125 13 -23.28125 C 16.113281 -23.28125 18.863281 -22.164062 21.25 -19.9375 C 23.644531 -17.707031 24.84375 -14.863281 24.84375 -11.40625 C 24.84375 -9.007812 24.222656 -6.882812 22.984375 -5.03125 C 21.742188 -3.175781 20.238281 -1.804688 18.46875 -0.921875 C 16.695312 -0.046875 14.859375 0.390625 12.953125 0.390625 C 11.054688 0.390625 9.210938 -0.078125 7.421875 -1.015625 C 5.640625 -1.953125 4.132812 -3.332031 2.90625 -5.15625 C 1.6875 -6.988281 1.078125 -9.054688 1.078125 -11.359375 Z M 10.109375 -8.265625 C 11.023438 -7.566406 11.957031 -7.21875 12.90625 -7.21875 C 13.863281 -7.21875 14.816406 -7.578125 15.765625 -8.296875 C 16.710938 -9.015625 17.1875 -10.078125 17.1875 -11.484375 C 17.1875 -12.898438 16.738281 -13.953125 15.84375 -14.640625 C 14.957031 -15.335938 13.992188 -15.6875 12.953125 -15.6875 C 11.921875 -15.6875 10.957031 -15.320312 10.0625 -14.59375 C 9.175781 -13.875 8.734375 -12.816406 8.734375 -11.421875 C 8.734375 -10.023438 9.191406 -8.972656 10.109375 -8.265625 Z M 10.109375 -8.265625 "/></g></g></g><g fill="#f8e29c" fill-opacity="1"><g transform="translate(186.742391, 166.949183)"><g><path d="M 30.84375 -22.59375 C 32.6875 -21.789062 33.609375 -20.796875 33.609375 -19.609375 C 33.609375 -19.117188 33.378906 -18.332031 32.921875 -17.25 C 32.460938 -16.175781 32.070312 -15.238281 31.75 -14.4375 L 27 -2.84375 C 26.570312 -1.582031 25.851562 -0.691406 24.84375 -0.171875 C 24.40625 0.0234375 23.851562 0.125 23.1875 0.125 C 22.53125 0.125 21.890625 -0.125 21.265625 -0.625 C 20.648438 -1.125 20.242188 -1.632812 20.046875 -2.15625 L 19.703125 -2.890625 C 19.472656 -3.472656 18.625 -5.722656 17.15625 -9.640625 C 16.863281 -8.941406 16.4375 -7.804688 15.875 -6.234375 C 15.3125 -4.671875 14.953125 -3.691406 14.796875 -3.296875 C 14.640625 -2.910156 14.539062 -2.648438 14.5 -2.515625 C 14.457031 -2.390625 14.332031 -2.15625 14.125 -1.8125 C 13.925781 -1.46875 13.695312 -1.164062 13.4375 -0.90625 C 12.75 -0.21875 11.957031 0.125 11.0625 0.125 C 10.164062 0.125 9.414062 -0.125 8.8125 -0.625 C 8.207031 -1.125 7.804688 -1.632812 7.609375 -2.15625 L 1.078125 -18.0625 C 0.785156 -18.925781 0.640625 -19.488281 0.640625 -19.75 C 0.640625 -20.894531 1.460938 -21.800781 3.109375 -22.46875 C 4.035156 -22.84375 4.785156 -23.03125 5.359375 -23.03125 C 5.929688 -23.03125 6.394531 -22.90625 6.75 -22.65625 C 7.113281 -22.414062 7.367188 -22.171875 7.515625 -21.921875 C 7.660156 -21.679688 7.773438 -21.429688 7.859375 -21.171875 C 8.347656 -20.015625 9.375 -17.304688 10.9375 -13.046875 L 13.484375 -20.046875 C 13.648438 -20.617188 13.96875 -21.125 14.4375 -21.5625 C 15.269531 -22.394531 16.117188 -22.8125 16.984375 -22.8125 C 17.847656 -22.8125 18.585938 -22.578125 19.203125 -22.109375 C 19.816406 -21.648438 20.242188 -21.191406 20.484375 -20.734375 L 20.828125 -20 C 22.265625 -15.96875 23.113281 -13.664062 23.375 -13.09375 L 26.015625 -20.265625 C 26.703125 -22.109375 27.738281 -23.03125 29.125 -23.03125 C 29.664062 -23.03125 30.238281 -22.882812 30.84375 -22.59375 Z M 30.84375 -22.59375 "/></g></g></g><g fill="#f8e29c" fill-opacity="1"><g transform="translate(220.996318, 166.949183)"><g/></g></g><g fill="#f8e29c" fill-opacity="1"><g transform="translate(231.92475, 166.949183)"><g><path d="M 1.734375 -18.96875 C 1.734375 -19.625 1.753906 -20.117188 1.796875 -20.453125 C 1.835938 -20.785156 1.957031 -21.164062 2.15625 -21.59375 C 2.5625 -22.34375 3.6875 -22.71875 5.53125 -22.71875 C 6.914062 -22.71875 7.894531 -22.472656 8.46875 -21.984375 C 8.957031 -21.585938 9.21875 -20.96875 9.25 -20.125 C 9.269531 -19.84375 9.28125 -19.425781 9.28125 -18.875 L 9.28125 -3.765625 C 9.28125 -3.097656 9.257812 -2.597656 9.21875 -2.265625 C 9.175781 -1.929688 9.039062 -1.550781 8.8125 -1.125 C 8.4375 -0.375 7.328125 0 5.484375 0 C 3.671875 0 2.5625 -0.390625 2.15625 -1.171875 C 1.957031 -1.597656 1.835938 -1.96875 1.796875 -2.28125 C 1.753906 -2.601562 1.734375 -3.109375 1.734375 -3.796875 Z M 8.828125 -26.984375 C 8.617188 -26.566406 8.238281 -26.269531 7.6875 -26.09375 C 7.144531 -25.914062 6.414062 -25.828125 5.5 -25.828125 C 4.59375 -25.828125 3.863281 -25.914062 3.3125 -26.09375 C 2.769531 -26.269531 2.390625 -26.570312 2.171875 -27 C 1.960938 -27.4375 1.835938 -27.816406 1.796875 -28.140625 C 1.753906 -28.472656 1.734375 -28.96875 1.734375 -29.625 C 1.734375 -30.289062 1.753906 -30.789062 1.796875 -31.125 C 1.835938 -31.457031 1.957031 -31.828125 2.15625 -32.234375 C 2.5625 -33.003906 3.6875 -33.390625 5.53125 -33.390625 C 7.34375 -33.390625 8.4375 -33.003906 8.8125 -32.234375 C 9.039062 -31.796875 9.175781 -31.410156 9.21875 -31.078125 C 9.257812 -30.753906 9.28125 -30.257812 9.28125 -29.59375 C 9.28125 -28.925781 9.257812 -28.425781 9.21875 -28.09375 C 9.175781 -27.769531 9.046875 -27.398438 8.828125 -26.984375 Z M 8.828125 -26.984375 "/></g></g></g><g fill="#f8e29c" fill-opacity="1"><g transform="translate(242.939573, 166.949183)"><g><path d="M 14.953125 -15.125 L 12.140625 -15.296875 L 12.140625 -9.328125 C 12.140625 -8.554688 12.257812 -7.992188 12.5 -7.640625 C 12.75 -7.296875 13.210938 -7.125 13.890625 -7.125 C 14.566406 -7.125 15.082031 -7.101562 15.4375 -7.0625 C 15.800781 -7.019531 16.1875 -6.882812 16.59375 -6.65625 C 17.25 -6.28125 17.578125 -5.316406 17.578125 -3.765625 C 17.578125 -1.941406 17.175781 -0.832031 16.375 -0.4375 C 15.9375 -0.226562 15.550781 -0.101562 15.21875 -0.0625 C 14.894531 -0.0195312 14.414062 0 13.78125 0 C 10.78125 0 8.503906 -0.675781 6.953125 -2.03125 C 5.398438 -3.382812 4.625 -5.675781 4.625 -8.90625 L 4.625 -15.296875 C 4.070312 -15.210938 3.476562 -15.171875 2.84375 -15.171875 C 2.21875 -15.171875 1.691406 -15.414062 1.265625 -15.90625 C 0.847656 -16.394531 0.640625 -17.226562 0.640625 -18.40625 C 0.640625 -19.582031 0.710938 -20.4375 0.859375 -20.96875 C 1.003906 -21.507812 1.207031 -21.894531 1.46875 -22.125 C 1.925781 -22.5 2.503906 -22.6875 3.203125 -22.6875 L 4.625 -22.515625 L 4.625 -26.953125 C 4.625 -27.617188 4.644531 -28.109375 4.6875 -28.421875 C 4.726562 -28.742188 4.863281 -29.09375 5.09375 -29.46875 C 5.46875 -30.1875 6.578125 -30.546875 8.421875 -30.546875 C 10.378906 -30.546875 11.546875 -30.015625 11.921875 -28.953125 C 12.066406 -28.484375 12.140625 -27.75 12.140625 -26.75 L 12.140625 -22.515625 C 13.410156 -22.628906 14.367188 -22.6875 15.015625 -22.6875 C 15.660156 -22.6875 16.148438 -22.660156 16.484375 -22.609375 C 16.816406 -22.566406 17.195312 -22.429688 17.625 -22.203125 C 18.375 -21.828125 18.75 -20.71875 18.75 -18.875 C 18.75 -17.0625 18.359375 -15.953125 17.578125 -15.546875 C 17.148438 -15.347656 16.769531 -15.226562 16.4375 -15.1875 C 16.101562 -15.144531 15.609375 -15.125 14.953125 -15.125 Z M 14.953125 -15.125 "/></g></g></g><g fill="#f8e29c" fill-opacity="1"><g transform="translate(136.42635, 201.44918)"><g><path d="M 30.84375 -22.59375 C 32.6875 -21.789062 33.609375 -20.796875 33.609375 -19.609375 C 33.609375 -19.117188 33.378906 -18.332031 32.921875 -17.25 C 32.460938 -16.175781 32.070312 -15.238281 31.75 -14.4375 L 27 -2.84375 C 26.570312 -1.582031 25.851562 -0.691406 24.84375 -0.171875 C 24.40625 0.0234375 23.851562 0.125 23.1875 0.125 C 22.53125 0.125 21.890625 -0.125 21.265625 -0.625 C 20.648438 -1.125 20.242188 -1.632812 20.046875 -2.15625 L 19.703125 -2.890625 C 19.472656 -3.472656 18.625 -5.722656 17.15625 -9.640625 C 16.863281 -8.941406 16.4375 -7.804688 15.875 -6.234375 C 15.3125 -4.671875 14.953125 -3.691406 14.796875 -3.296875 C 14.640625 -2.910156 14.539062 -2.648438 14.5 -2.515625 C 14.457031 -2.390625 14.332031 -2.15625 14.125 -1.8125 C 13.925781 -1.46875 13.695312 -1.164062 13.4375 -0.90625 C 12.75 -0.21875 11.957031 0.125 11.0625 0.125 C 10.164062 0.125 9.414062 -0.125 8.8125 -0.625 C 8.207031 -1.125 7.804688 -1.632812 7.609375 -2.15625 L 1.078125 -18.0625 C 0.785156 -18.925781 0.640625 -19.488281 0.640625 -19.75 C 0.640625 -20.894531 1.460938 -21.800781 3.109375 -22.46875 C 4.035156 -22.84375 4.785156 -23.03125 5.359375 -23.03125 C 5.929688 -23.03125 6.394531 -22.90625 6.75 -22.65625 C 7.113281 -22.414062 7.367188 -22.171875 7.515625 -21.921875 C 7.660156 -21.679688 7.773438 -21.429688 7.859375 -21.171875 C 8.347656 -20.015625 9.375 -17.304688 10.9375 -13.046875 L 13.484375 -20.046875 C 13.648438 -20.617188 13.96875 -21.125 14.4375 -21.5625 C 15.269531 -22.394531 16.117188 -22.8125 16.984375 -22.8125 C 17.847656 -22.8125 18.585938 -22.578125 19.203125 -22.109375 C 19.816406 -21.648438 20.242188 -21.191406 20.484375 -20.734375 L 20.828125 -20 C 22.265625 -15.96875 23.113281 -13.664062 23.375 -13.09375 L 26.015625 -20.265625 C 26.703125 -22.109375 27.738281 -23.03125 29.125 -23.03125 C 29.664062 -23.03125 30.238281 -22.882812 30.84375 -22.59375 Z M 30.84375 -22.59375 "/></g></g></g><g fill="#f8e29c" fill-opacity="1"><g transform="translate(170.680277, 201.44918)"><g><path d="M 1.078125 -11.359375 C 1.078125 -14.816406 2.285156 -17.664062 4.703125 -19.90625 C 7.128906 -22.15625 9.894531 -23.28125 13 -23.28125 C 16.113281 -23.28125 18.863281 -22.164062 21.25 -19.9375 C 23.644531 -17.707031 24.84375 -14.863281 24.84375 -11.40625 C 24.84375 -9.007812 24.222656 -6.882812 22.984375 -5.03125 C 21.742188 -3.175781 20.238281 -1.804688 18.46875 -0.921875 C 16.695312 -0.046875 14.859375 0.390625 12.953125 0.390625 C 11.054688 0.390625 9.210938 -0.078125 7.421875 -1.015625 C 5.640625 -1.953125 4.132812 -3.332031 2.90625 -5.15625 C 1.6875 -6.988281 1.078125 -9.054688 1.078125 -11.359375 Z M 10.109375 -8.265625 C 11.023438 -7.566406 11.957031 -7.21875 12.90625 -7.21875 C 13.863281 -7.21875 14.816406 -7.578125 15.765625 -8.296875 C 16.710938 -9.015625 17.1875 -10.078125 17.1875 -11.484375 C 17.1875 -12.898438 16.738281 -13.953125 15.84375 -14.640625 C 14.957031 -15.335938 13.992188 -15.6875 12.953125 -15.6875 C 11.921875 -15.6875 10.957031 -15.320312 10.0625 -14.59375 C 9.175781 -13.875 8.734375 -12.816406 8.734375 -11.421875 C 8.734375 -10.023438 9.191406 -8.972656 10.109375 -8.265625 Z M 10.109375 -8.265625 "/></g></g></g><g fill="#f8e29c" fill-opacity="1"><g transform="translate(196.597493, 201.44918)"><g><path d="M 17.1875 -22.5 C 17.738281 -22.332031 18.191406 -22.039062 18.546875 -21.625 C 18.910156 -21.207031 19.09375 -20.535156 19.09375 -19.609375 C 19.09375 -18.691406 18.816406 -17.6875 18.265625 -16.59375 C 17.722656 -15.5 16.9375 -14.953125 15.90625 -14.953125 C 15.382812 -14.953125 14.882812 -15.066406 14.40625 -15.296875 C 13.9375 -15.523438 13.3125 -15.640625 12.53125 -15.640625 C 11.75 -15.640625 11.019531 -15.363281 10.34375 -14.8125 C 9.664062 -14.269531 9.328125 -13.609375 9.328125 -12.828125 L 9.328125 -3.765625 C 9.328125 -3.097656 9.304688 -2.597656 9.265625 -2.265625 C 9.222656 -1.929688 9.085938 -1.550781 8.859375 -1.125 C 8.421875 -0.375 7.296875 0 5.484375 0 C 4.097656 0 3.101562 -0.242188 2.5 -0.734375 C 2.039062 -1.140625 1.785156 -1.757812 1.734375 -2.59375 C 1.734375 -2.882812 1.734375 -3.300781 1.734375 -3.84375 L 1.734375 -19.015625 C 1.734375 -19.671875 1.753906 -20.164062 1.796875 -20.5 C 1.835938 -20.832031 1.957031 -21.195312 2.15625 -21.59375 C 2.5625 -22.375 3.6875 -22.765625 5.53125 -22.765625 C 7.257812 -22.765625 8.335938 -22.4375 8.765625 -21.78125 C 9.085938 -21.3125 9.25 -20.832031 9.25 -20.34375 C 9.394531 -20.550781 9.601562 -20.796875 9.875 -21.078125 C 10.144531 -21.367188 10.722656 -21.757812 11.609375 -22.25 C 12.503906 -22.738281 13.289062 -22.984375 13.96875 -22.984375 C 14.644531 -22.984375 15.210938 -22.945312 15.671875 -22.875 C 16.140625 -22.800781 16.644531 -22.675781 17.1875 -22.5 Z M 17.1875 -22.5 "/></g></g></g><g fill="#f8e29c" fill-opacity="1"><g transform="translate(216.337772, 201.44918)"><g><path d="M 15.125 -11.40625 L 20.859375 -6.65625 C 21.585938 -6.050781 22.046875 -5.585938 22.234375 -5.265625 C 22.421875 -4.953125 22.515625 -4.648438 22.515625 -4.359375 C 22.515625 -3.671875 22.066406 -2.738281 21.171875 -1.5625 C 20.191406 -0.34375 19.328125 0.265625 18.578125 0.265625 C 17.941406 0.265625 17.0625 -0.15625 15.9375 -1 L 15.515625 -1.296875 C 14.847656 -1.835938 13.820312 -2.789062 12.4375 -4.15625 C 11.0625 -5.53125 10.007812 -6.503906 9.28125 -7.078125 L 9.28125 -3.765625 C 9.28125 -3.097656 9.257812 -2.597656 9.21875 -2.265625 C 9.175781 -1.929688 9.039062 -1.550781 8.8125 -1.125 C 8.4375 -0.375 7.328125 0 5.484375 0 C 3.671875 0 2.5625 -0.390625 2.15625 -1.171875 C 1.957031 -1.597656 1.835938 -1.976562 1.796875 -2.3125 C 1.753906 -2.644531 1.734375 -3.140625 1.734375 -3.796875 L 1.734375 -29.6875 C 1.734375 -30.34375 1.753906 -30.835938 1.796875 -31.171875 C 1.835938 -31.503906 1.957031 -31.882812 2.15625 -32.3125 C 2.5625 -33.09375 3.6875 -33.484375 5.53125 -33.484375 C 6.914062 -33.484375 7.894531 -33.238281 8.46875 -32.75 C 8.957031 -32.34375 9.21875 -31.707031 9.25 -30.84375 C 9.269531 -30.582031 9.28125 -30.179688 9.28125 -29.640625 L 9.28125 -15.9375 C 9.800781 -16.375 10.585938 -17.109375 11.640625 -18.140625 C 12.691406 -19.179688 13.476562 -19.914062 14 -20.34375 L 14.515625 -20.6875 C 15.523438 -21.46875 16.390625 -21.859375 17.109375 -21.859375 C 17.828125 -21.859375 18.65625 -21.273438 19.59375 -20.109375 C 20.53125 -18.941406 21 -18.023438 21 -17.359375 C 21 -16.703125 20.460938 -15.925781 19.390625 -15.03125 Z M 15.125 -11.40625 "/></g></g></g><g fill="#f8e29c" fill-opacity="1"><g transform="translate(239.490484, 201.44918)"><g><path d="M 1.90625 -2.03125 C 1.351562 -2.375 1.078125 -2.921875 1.078125 -3.671875 C 1.078125 -4.421875 1.625 -5.554688 2.71875 -7.078125 C 3.039062 -7.566406 3.550781 -7.8125 4.25 -7.8125 C 4.957031 -7.8125 5.914062 -7.457031 7.125 -6.75 C 8.332031 -6.050781 9.425781 -5.703125 10.40625 -5.703125 C 12.164062 -5.703125 13.046875 -6.046875 13.046875 -6.734375 C 13.046875 -7.285156 12.082031 -7.691406 10.15625 -7.953125 C 8.34375 -8.210938 6.539062 -8.890625 4.75 -9.984375 C 3.914062 -10.492188 3.222656 -11.300781 2.671875 -12.40625 C 2.128906 -13.519531 1.859375 -14.84375 1.859375 -16.375 C 1.859375 -20.925781 4.984375 -23.203125 11.234375 -23.203125 C 13.273438 -23.203125 15.378906 -22.710938 17.546875 -21.734375 C 18.546875 -21.273438 19.046875 -20.695312 19.046875 -20 C 19.046875 -19.3125 18.726562 -18.460938 18.09375 -17.453125 C 17.46875 -16.441406 16.820312 -15.9375 16.15625 -15.9375 C 15.8125 -15.9375 15.171875 -16.148438 14.234375 -16.578125 C 13.296875 -17.015625 12.28125 -17.234375 11.1875 -17.234375 C 9.488281 -17.234375 8.640625 -16.914062 8.640625 -16.28125 C 8.640625 -15.414062 9.617188 -14.859375 11.578125 -14.609375 C 13.484375 -14.398438 15.328125 -13.847656 17.109375 -12.953125 C 17.941406 -12.554688 18.640625 -11.859375 19.203125 -10.859375 C 19.765625 -9.867188 20.046875 -8.625 20.046875 -7.125 C 20.046875 -5.625 19.765625 -4.347656 19.203125 -3.296875 C 18.640625 -2.253906 17.851562 -1.472656 16.84375 -0.953125 C 15 -0.0546875 12.6875 0.390625 9.90625 0.390625 C 7.132812 0.390625 4.46875 -0.414062 1.90625 -2.03125 Z M 1.90625 -2.03125 "/></g></g></g></svg>